# xmcd
#
# Track frame offsets: 
#        150
#        19365
#        31017
#        44175
#        54960
#        71532
#        82727
#        93762
#        108651
#        118477
#        129987
#        138910
#        154659
#        164725
#        174441
#        189115
#        203394
#        215799
#
# Disc length: 3077 seconds
#
# Revision: 0
# Processed by: cddbd v1.5.2PL0 Copyright (c) Steve Scherf et al.
# Submitted via: ExactAudioCopy v0.99pb5
#
DISCID=f30c0312
DTITLE=Rat Pack  - Frank Sinatra - Disc 1  FLAC
DYEAR=1900
DGENRE=
TTITLE0=Stormy Weather
TTITLE1=That Old Black Magic
TTITLE2=I get A Kick
TTITLE3=Jeepers Creapers
TTITLE4=Night And Day
TTITLE5=Write Myself A Letter
TTITLE6=Get Happy
TTITLE7=Embraceable You
TTITLE8=World on a String
TTITLE9=Lean Baby
TTITLE10=Can't Take That Away
TTITLE11=Birth Of The Blues
TTITLE12=Takeing a chance on love
TTITLE13=All Of Me
TTITLE14=Just One Of Those Things
TTITLE15=The Gal That Got Away
TTITLE16=April In Paris
TTITLE17=Stella By Starlight
EXTD=
EXTT0=
EXTT1=
EXTT2=
EXTT3=
EXTT4=
EXTT5=
EXTT6=
EXTT7=
EXTT8=
EXTT9=
EXTT10=
EXTT11=
EXTT12=
EXTT13=
EXTT14=
EXTT15=
EXTT16=
EXTT17=
PLAYORDER=
